<?xml version="1.0" encoding="utf-8"?>
<!-- Generator: Adobe Illustrator 18.0.0, SVG Export Plug-In . SVG Version: 6.00 Build 0)  -->
<!DOCTYPE svg PUBLIC "-//W3C//DTD SVG 1.1//EN" "http://www.w3.org/Graphics/SVG/1.1/DTD/svg11.dtd">
<svg version="1.1" id="Layer_1" xmlns="http://www.w3.org/2000/svg" xmlns:xlink="http://www.w3.org/1999/xlink" x="0px" y="0px"
	 viewBox="0 0 50 50" enable-background="new 0 0 50 50" xml:space="preserve">
<g>
	<path d="M44.8,36.4v-30H5.2v30h18.6c0.2,0.4,0.5,0.7,0.8,1l-3.1,5.5l3.6,0.2l2,3l3.4-5.8c0.6,0.1,1.6,0,2.1-0.1l3.5,6l2-3l3.6-0.2
		l-3.7-6.4c0,0,0-0.1,0.1-0.1C37.8,36.4,44.8,36.4,44.8,36.4z M6.5,35.1V7.6h37.1v27.5h-5.1c0.2-0.6,0.4-1.2,0.5-1.9h2.7V9.5H8.4
		v23.6h14.2c0.1,0.7,0.3,1.3,0.5,1.9H6.5z M22.4,31.9H9.7V10.8h30.7v21.1h-1.3c0-4.6-3.7-8.3-8.3-8.3S22.4,27.3,22.4,31.9z
		 M26.8,43.6l-1.2-1.8l-2.1-0.1l1.9-3.4c1,0.8,2.2,1.4,3.5,1.7L26.8,43.6z M23.7,31.9c0-3.9,3.2-7,7-7s7,3.2,7,7s-3.2,7-7,7
		S23.7,35.8,23.7,31.9z M39.2,41.6l-2.1,0.1l-1.2,1.8l-2.3-3.9c1.2-0.5,2.3-1.2,3.2-2.1L39.2,41.6z"/>
	<path d="M30.8,26.8c-2.8,0-5.1,2.3-5.1,5.1s2.3,5.1,5.1,5.1s5.1-2.3,5.1-5.1S33.6,26.8,30.8,26.8z M30.8,35.7
		c-2.1,0-3.8-1.7-3.8-3.8s1.7-3.8,3.8-3.8s3.8,1.7,3.8,3.8S32.9,35.7,30.8,35.7z"/>
	<rect x="12.2" y="19.1" width="25.6" height="1.3"/>
	<rect x="12.2" y="14" width="25.6" height="1.3"/>
	<rect x="12.2" y="24.2" width="11.5" height="1.3"/>
	<rect x="12.2" y="28" width="1.3" height="1.3"/>
	<rect x="14.8" y="28" width="1.3" height="1.3"/>
	<rect x="17.3" y="28" width="1.3" height="1.3"/>
</g>
</svg>
