<?xml version="1.0" encoding="utf-8"?>
<!-- Generator: Adobe Illustrator 18.0.0, SVG Export Plug-In . SVG Version: 6.00 Build 0)  -->
<!DOCTYPE svg PUBLIC "-//W3C//DTD SVG 1.1//EN" "http://www.w3.org/Graphics/SVG/1.1/DTD/svg11.dtd">
<svg version="1.1" id="Layer_1" xmlns="http://www.w3.org/2000/svg" xmlns:xlink="http://www.w3.org/1999/xlink" x="0px" y="0px"
	 viewBox="0 0 50 50" enable-background="new 0 0 50 50" xml:space="preserve">
<title>BS-Question-Light-Rounded-Circle</title>
<path d="M25,4c11.6,0,21,9.4,21,21s-9.4,21-21,21S4,36.6,4,25S13.4,4,25,4 M25,2.5C12.6,2.5,2.5,12.6,2.5,25S12.6,47.5,25,47.5
	S47.5,37.4,47.5,25S37.4,2.5,25,2.5z"/>
<path d="M23.1,30.1v-2c0-3.2,0.2-3.6,2.6-6.1c1.9-1.9,2.4-2.8,2.4-4.2c0-1.8-1.2-2.8-3.1-2.8c-2.2,0-3.4,1.1-3.6,3.6h-2.3
	c0.2-4,2.3-6.1,6.1-6.1c3.5,0,5.7,2,5.7,5.3c0,2-0.6,3.1-3.2,5.6c-2,2-2.1,2.4-2.1,5.4v1.3L23.1,30.1z M26.5,35.4
	c0,1.2-1,2.1-2.2,2.1s-2.1-1-2.1-2.2c0-1.2,1-2.1,2.2-2.1C25.5,33.2,26.5,34.2,26.5,35.4z"/>
</svg>
