<?xml version="1.0" encoding="utf-8"?>
<!-- Generator: Adobe Illustrator 18.0.0, SVG Export Plug-In . SVG Version: 6.00 Build 0)  -->
<!DOCTYPE svg PUBLIC "-//W3C//DTD SVG 1.1//EN" "http://www.w3.org/Graphics/SVG/1.1/DTD/svg11.dtd">
<svg version="1.1" id="Layer_1" xmlns="http://www.w3.org/2000/svg" xmlns:xlink="http://www.w3.org/1999/xlink" x="0px" y="0px"
	 viewBox="0 0 50 50" enable-background="new 0 0 50 50" xml:space="preserve">
<g>
	<circle fill="#333333" cx="25" cy="25.3" r="20.5"/>
	<g>
		<g>
			<defs>
				<path id="SVGID_1_" d="M25,13.4c0,0,1.7-0.2,3.2,0.2s2.1,0.5,2.1,0.5s1.4-1,2.4-1.5c1-0.5,3-0.6,3-0.6s0.6,1.5,0.6,2.3
					s0,2-0.1,2.4c-0.2,0.4-0.3,0.9-0.3,0.9s2,1.8,2,4.1s0,5.6-1.4,7.2s-3.2,2.7-4.7,3.2c-1.5,0.5-3,0.6-3,0.6s0.6,0.9,0.9,1.4
					c0.3,0.5,0.5,3.1,0.5,4.2v8.5h-5.2L25,13.4z"/>
			</defs>
			<use xlink:href="#SVGID_1_"  overflow="visible" fill-rule="evenodd" clip-rule="evenodd" fill="#FFFFFF"/>
			<clipPath id="SVGID_2_">
				<use xlink:href="#SVGID_1_"  overflow="visible"/>
			</clipPath>
			<rect x="24.5" y="11.6" clip-path="url(#SVGID_2_)" fill="#FFFFFF" width="13.9" height="35.6"/>
		</g>
		<g>
			<defs>
				<path id="SVGID_3_" d="M25.1,13.4c0,0-1.7-0.2-3.2,0.2c-1.5,0.4-2.1,0.5-2.1,0.5s-1.4-1-2.4-1.5c-1-0.5-3-0.6-3-0.6
					s-0.6,1.5-0.6,2.3s0,2,0.1,2.4c0.2,0.4,0.3,0.9,0.3,0.9s-2,1.8-2,4.1s0,5.6,1.4,7.2s3.2,2.7,4.7,3.2c1.5,0.5,3,0.6,3,0.6
					s-0.6,0.9-0.9,1.4c-0.3,0.5-0.5,3.1-0.5,4.2v8.5h5.2L25.1,13.4z"/>
			</defs>
			<use xlink:href="#SVGID_3_"  overflow="visible" fill-rule="evenodd" clip-rule="evenodd" fill="#FFFFFF"/>
			<clipPath id="SVGID_4_">
				<use xlink:href="#SVGID_3_"  overflow="visible"/>
			</clipPath>
			<rect x="11.8" y="11.6" clip-path="url(#SVGID_4_)" fill="#FFFFFF" width="13.9" height="35.6"/>
		</g>
		<g>
			<defs>
				<path id="SVGID_5_" d="M20.2,35.5c0,0-0.5,0.5-1.8,0.5c-1.2,0-2.3-0.1-2.9-0.6c-0.6-0.5-1.7-2.4-2.4-2.8
					c-0.8-0.5-1.3-0.8-1.8-0.8s-1,0.3-1,0.3s0.1,0.3,0.4,0.5c0.3,0.3,1.5,1,1.9,1.6c0.4,0.6,1,2.3,1.4,2.8c0.4,0.5,0.9,1.2,2.1,1.5
					s1.9,0.4,2.6,0.4c0.7,0,1.8-0.5,1.8-0.5L20.2,35.5z"/>
			</defs>
			<use xlink:href="#SVGID_5_"  overflow="visible" fill-rule="evenodd" clip-rule="evenodd" fill="#FFFFFF"/>
			<clipPath id="SVGID_6_">
				<use xlink:href="#SVGID_5_"  overflow="visible"/>
			</clipPath>
			<rect x="9.8" y="31.2" clip-path="url(#SVGID_6_)" fill="#FFFFFF" width="11" height="8.1"/>
		</g>
	</g>
</g>
</svg>
