<?xml version="1.0" encoding="utf-8"?>
<!-- Generator: Adobe Illustrator 18.0.0, SVG Export Plug-In . SVG Version: 6.00 Build 0)  -->
<!DOCTYPE svg PUBLIC "-//W3C//DTD SVG 1.1//EN" "http://www.w3.org/Graphics/SVG/1.1/DTD/svg11.dtd">
<svg version="1.1" id="Layer_1" xmlns="http://www.w3.org/2000/svg" xmlns:xlink="http://www.w3.org/1999/xlink" x="0px" y="0px"
	 viewBox="0 0 375 175" enable-background="new 0 0 375 175" xml:space="preserve">
<g>
	<defs>
		<path id="SVGID_1_" d="M330-1067c0-2.2,1.8-4,4-4h273c2.2,0,4,1.8,4,4v161c0,2.2-1.8,4-4,4H334c-2.2,0-4-1.8-4-4V-1067z"/>
	</defs>
	<clipPath id="SVGID_2_">
		<use xlink:href="#SVGID_1_"  overflow="visible"/>
	</clipPath>
	<g clip-path="url(#SVGID_2_)">
		<defs>
			<rect id="SVGID_3_" x="-325" y="-1298" width="1024" height="2770"/>
		</defs>
		<clipPath id="SVGID_4_">
			<use xlink:href="#SVGID_3_"  overflow="visible"/>
		</clipPath>
		<rect x="325" y="-1076" clip-path="url(#SVGID_4_)" fill="#959494" width="291" height="179"/>
	</g>
</g>
<g>
	<defs>
		<path id="SVGID_5_" d="M339.5-1055v138c0,2.5,2,4.5,4.5,4.5h254c2.5,0,4.5-2,4.5-4.5v-138c0-2.5-2-4.5-4.5-4.5H344
			C341.5-1059.5,339.5-1057.5,339.5-1055z M340.5-1055c0-1.9,1.6-3.5,3.5-3.5h254c1.9,0,3.5,1.6,3.5,3.5v138c0,1.9-1.6,3.5-3.5,3.5
			H344c-1.9,0-3.5-1.6-3.5-3.5V-1055z M319.5-1079.5h303v187h-303V-1079.5z"/>
	</defs>
	<clipPath id="SVGID_6_">
		<use xlink:href="#SVGID_5_"  overflow="visible"/>
	</clipPath>
	<g clip-path="url(#SVGID_6_)">
		<defs>
			<path id="SVGID_7_" d="M340-1055c0-2.2,1.8-4,4-4h254c2.2,0,4,1.8,4,4v138c0,2.2-1.8,4-4,4H344c-2.2,0-4-1.8-4-4V-1055z"/>
		</defs>
		<clipPath id="SVGID_8_">
			<use xlink:href="#SVGID_7_"  overflow="visible"/>
		</clipPath>
		<g clip-path="url(#SVGID_8_)">
			<defs>
				<rect id="SVGID_9_" x="-325" y="-1298" width="1024" height="2770"/>
			</defs>
			<clipPath id="SVGID_10_">
				<use xlink:href="#SVGID_9_"  overflow="visible"/>
			</clipPath>
			<path clip-path="url(#SVGID_10_)" fill="#FDD800" d="M340-1055c0-2.2,1.8-4,4-4h254c2.2,0,4,1.8,4,4v138c0,2.2-1.8,4-4,4H344
				c-2.2,0-4-1.8-4-4V-1055z"/>
		</g>
	</g>
</g>
<g>
	<defs>
		<path id="SVGID_11_" d="M340-1055c0-2.2,1.8-4,4-4h254c2.2,0,4,1.8,4,4v138c0,2.2-1.8,4-4,4H344c-2.2,0-4-1.8-4-4V-1055z"/>
	</defs>
	<clipPath id="SVGID_12_">
		<use xlink:href="#SVGID_11_"  overflow="visible"/>
	</clipPath>
	<g clip-path="url(#SVGID_12_)">
		<defs>
			<rect id="SVGID_13_" x="-325" y="-1298" width="1024" height="2770"/>
		</defs>
		<clipPath id="SVGID_14_">
			<use xlink:href="#SVGID_13_"  overflow="visible"/>
		</clipPath>
		<path clip-path="url(#SVGID_14_)" fill="none" stroke="#979797" stroke-width="2" stroke-miterlimit="10" d="M340-1055
			c0-2.2,1.8-4,4-4h254c2.2,0,4,1.8,4,4v138c0,2.2-1.8,4-4,4H344c-2.2,0-4-1.8-4-4V-1055z"/>
	</g>
</g>
<g>
	<defs>
		<path id="SVGID_15_" d="M360-1033h223v107c0,2.2-1.8,4-4,4H364c-2.2,0-4-1.8-4-4V-1033z"/>
	</defs>
	<clipPath id="SVGID_16_">
		<use xlink:href="#SVGID_15_"  overflow="visible"/>
	</clipPath>
	<g clip-path="url(#SVGID_16_)">
		<defs>
			<rect id="SVGID_17_" x="-325" y="-1298" width="1024" height="2770"/>
		</defs>
		<clipPath id="SVGID_18_">
			<use xlink:href="#SVGID_17_"  overflow="visible"/>
		</clipPath>
		<rect x="355" y="-1038" clip-path="url(#SVGID_18_)" fill="#E2E2E2" width="233" height="121"/>
	</g>
</g>
<g>
	<defs>
		<path id="SVGID_19_" d="M360-1030h223v-11c0-2.2-1.8-4-4-4H364c-2.2,0-4,1.8-4,4V-1030z"/>
	</defs>
	<clipPath id="SVGID_20_">
		<use xlink:href="#SVGID_19_"  overflow="visible"/>
	</clipPath>
	<g clip-path="url(#SVGID_20_)">
		<defs>
			<rect id="SVGID_21_" x="-325" y="-1298" width="1024" height="2770"/>
		</defs>
		<clipPath id="SVGID_22_">
			<use xlink:href="#SVGID_21_"  overflow="visible"/>
		</clipPath>
		<rect x="355" y="-1050" clip-path="url(#SVGID_22_)" fill="#222222" width="233" height="25"/>
	</g>
</g>
<g>
	<defs>
		<circle id="SVGID_23_" cx="368" cy="-1037" r="3"/>
	</defs>
	<clipPath id="SVGID_24_">
		<use xlink:href="#SVGID_23_"  overflow="visible"/>
	</clipPath>
	<g clip-path="url(#SVGID_24_)">
		<defs>
			<rect id="SVGID_25_" x="-325" y="-1298" width="1024" height="2770"/>
		</defs>
		<clipPath id="SVGID_26_">
			<use xlink:href="#SVGID_25_"  overflow="visible"/>
		</clipPath>
		<rect x="360" y="-1045" clip-path="url(#SVGID_26_)" fill="#FFFFFF" width="16" height="16"/>
	</g>
</g>
<g>
	<defs>
		<circle id="SVGID_27_" cx="376.5" cy="-1037" r="3"/>
	</defs>
	<clipPath id="SVGID_28_">
		<use xlink:href="#SVGID_27_"  overflow="visible"/>
	</clipPath>
	<g clip-path="url(#SVGID_28_)">
		<defs>
			<rect id="SVGID_29_" x="-325" y="-1298" width="1024" height="2770"/>
		</defs>
		<clipPath id="SVGID_30_">
			<use xlink:href="#SVGID_29_"  overflow="visible"/>
		</clipPath>
		<rect x="368.5" y="-1045" clip-path="url(#SVGID_30_)" fill="#FFFFFF" width="16" height="16"/>
	</g>
</g>
<g>
	<defs>
		<circle id="SVGID_31_" cx="385" cy="-1037" r="3"/>
	</defs>
	<clipPath id="SVGID_32_">
		<use xlink:href="#SVGID_31_"  overflow="visible"/>
	</clipPath>
	<g clip-path="url(#SVGID_32_)">
		<defs>
			<rect id="SVGID_33_" x="-325" y="-1298" width="1024" height="2770"/>
		</defs>
		<clipPath id="SVGID_34_">
			<use xlink:href="#SVGID_33_"  overflow="visible"/>
		</clipPath>
		<rect x="377" y="-1045" clip-path="url(#SVGID_34_)" fill="#FFFFFF" width="16" height="16"/>
	</g>
</g>
<g>
	<defs>
		<path id="SVGID_35_" d="M281-902c0-1.1,0.9-2,2-2h368c1.1,0,2,0.9,2,2c0,1.1-0.9,2-2,2H283C281.9-900,281-900.9,281-902z"/>
	</defs>
	<clipPath id="SVGID_36_">
		<use xlink:href="#SVGID_35_"  overflow="visible"/>
	</clipPath>
	<g clip-path="url(#SVGID_36_)">
		<defs>
			<rect id="SVGID_37_" x="-325" y="-1298" width="1024" height="2770"/>
		</defs>
		<clipPath id="SVGID_38_">
			<use xlink:href="#SVGID_37_"  overflow="visible"/>
		</clipPath>
		<rect x="276" y="-909" clip-path="url(#SVGID_38_)" fill="#D8D9D8" width="382" height="14"/>
	</g>
</g>
<g>
	<defs>
		<polyline id="SVGID_39_" points="283.8,-899.9 331,-894 454.4,-894 611.4,-894 652.4,-900 		"/>
	</defs>
	<clipPath id="SVGID_40_">
		<use xlink:href="#SVGID_39_"  overflow="visible"/>
	</clipPath>
	<g clip-path="url(#SVGID_40_)">
		<defs>
			<rect id="SVGID_41_" x="-325" y="-1298" width="1024" height="2770"/>
		</defs>
		<clipPath id="SVGID_42_">
			<use xlink:href="#SVGID_41_"  overflow="visible"/>
		</clipPath>
		<rect x="278.8" y="-905" clip-path="url(#SVGID_42_)" fill="#BCBFC3" width="378.7" height="16"/>
	</g>
</g>
<g>
	<defs>
		<path id="SVGID_43_" d="M384-1018c0-0.5,0.5-1,1-1h66c0.6,0,1,0.5,1,1v4c0,0.5-0.5,1-1,1h-66c-0.6,0-1-0.5-1-1V-1018z"/>
	</defs>
	<clipPath id="SVGID_44_">
		<use xlink:href="#SVGID_43_"  overflow="visible"/>
	</clipPath>
	<g clip-path="url(#SVGID_44_)">
		<defs>
			<rect id="SVGID_45_" x="-325" y="-1298" width="1024" height="2770"/>
		</defs>
		<clipPath id="SVGID_46_">
			<use xlink:href="#SVGID_45_"  overflow="visible"/>
		</clipPath>
		<rect x="379" y="-1024" clip-path="url(#SVGID_46_)" fill="#BDBEC0" width="78" height="16"/>
	</g>
</g>
<g>
	<defs>
		<path id="SVGID_47_" d="M366-1018c0-0.5,0.5-1,1-1h4c0.5,0,1,0.5,1,1v4c0,0.5-0.5,1-1,1h-4c-0.5,0-1-0.5-1-1V-1018z"/>
	</defs>
	<clipPath id="SVGID_48_">
		<use xlink:href="#SVGID_47_"  overflow="visible"/>
	</clipPath>
	<g clip-path="url(#SVGID_48_)">
		<defs>
			<rect id="SVGID_49_" x="-325" y="-1298" width="1024" height="2770"/>
		</defs>
		<clipPath id="SVGID_50_">
			<use xlink:href="#SVGID_49_"  overflow="visible"/>
		</clipPath>
		<rect x="361" y="-1024" clip-path="url(#SVGID_50_)" fill="#BDBEC0" width="16" height="16"/>
	</g>
</g>
<g>
	<defs>
		<path id="SVGID_51_" d="M366-1008c0-0.5,0.5-1,1-1h4c0.5,0,1,0.5,1,1v4c0,0.5-0.5,1-1,1h-4c-0.5,0-1-0.5-1-1V-1008z"/>
	</defs>
	<clipPath id="SVGID_52_">
		<use xlink:href="#SVGID_51_"  overflow="visible"/>
	</clipPath>
	<g clip-path="url(#SVGID_52_)">
		<defs>
			<rect id="SVGID_53_" x="-325" y="-1298" width="1024" height="2770"/>
		</defs>
		<clipPath id="SVGID_54_">
			<use xlink:href="#SVGID_53_"  overflow="visible"/>
		</clipPath>
		<rect x="361" y="-1014" clip-path="url(#SVGID_54_)" fill="#BDBEC0" width="16" height="16"/>
	</g>
</g>
<g>
	<defs>
		<path id="SVGID_55_" d="M366-998c0-0.5,0.5-1,1-1h4c0.5,0,1,0.5,1,1v4c0,0.5-0.5,1-1,1h-4c-0.5,0-1-0.5-1-1V-998z"/>
	</defs>
	<clipPath id="SVGID_56_">
		<use xlink:href="#SVGID_55_"  overflow="visible"/>
	</clipPath>
	<g clip-path="url(#SVGID_56_)">
		<defs>
			<rect id="SVGID_57_" x="-325" y="-1298" width="1024" height="2770"/>
		</defs>
		<clipPath id="SVGID_58_">
			<use xlink:href="#SVGID_57_"  overflow="visible"/>
		</clipPath>
		<rect x="361" y="-1004" clip-path="url(#SVGID_58_)" fill="#BDBEC0" width="16" height="16"/>
	</g>
</g>
<g>
	<defs>
		<path id="SVGID_59_" d="M366-988c0-0.5,0.5-1,1-1h4c0.5,0,1,0.5,1,1v4c0,0.5-0.5,1-1,1h-4c-0.5,0-1-0.5-1-1V-988z"/>
	</defs>
	<clipPath id="SVGID_60_">
		<use xlink:href="#SVGID_59_"  overflow="visible"/>
	</clipPath>
	<g clip-path="url(#SVGID_60_)">
		<defs>
			<rect id="SVGID_61_" x="-325" y="-1298" width="1024" height="2770"/>
		</defs>
		<clipPath id="SVGID_62_">
			<use xlink:href="#SVGID_61_"  overflow="visible"/>
		</clipPath>
		<rect x="361" y="-994" clip-path="url(#SVGID_62_)" fill="#BDBEC0" width="16" height="16"/>
	</g>
</g>
<g>
	<defs>
		<path id="SVGID_63_" d="M366-978c0-0.5,0.5-1,1-1h4c0.5,0,1,0.5,1,1v4c0,0.5-0.5,1-1,1h-4c-0.5,0-1-0.5-1-1V-978z"/>
	</defs>
	<clipPath id="SVGID_64_">
		<use xlink:href="#SVGID_63_"  overflow="visible"/>
	</clipPath>
	<g clip-path="url(#SVGID_64_)">
		<defs>
			<rect id="SVGID_65_" x="-325" y="-1298" width="1024" height="2770"/>
		</defs>
		<clipPath id="SVGID_66_">
			<use xlink:href="#SVGID_65_"  overflow="visible"/>
		</clipPath>
		<rect x="361" y="-984" clip-path="url(#SVGID_66_)" fill="#BDBEC0" width="16" height="16"/>
	</g>
</g>
<g>
	<defs>
		<path id="SVGID_67_" d="M366-968c0-0.5,0.5-1,1-1h4c0.5,0,1,0.5,1,1v4c0,0.5-0.5,1-1,1h-4c-0.5,0-1-0.5-1-1V-968z"/>
	</defs>
	<clipPath id="SVGID_68_">
		<use xlink:href="#SVGID_67_"  overflow="visible"/>
	</clipPath>
	<g clip-path="url(#SVGID_68_)">
		<defs>
			<rect id="SVGID_69_" x="-325" y="-1298" width="1024" height="2770"/>
		</defs>
		<clipPath id="SVGID_70_">
			<use xlink:href="#SVGID_69_"  overflow="visible"/>
		</clipPath>
		<rect x="361" y="-974" clip-path="url(#SVGID_70_)" fill="#BDBEC0" width="16" height="16"/>
	</g>
</g>
<g>
	<defs>
		<path id="SVGID_71_" d="M366-958c0-0.5,0.5-1,1-1h4c0.5,0,1,0.5,1,1v4c0,0.5-0.5,1-1,1h-4c-0.5,0-1-0.5-1-1V-958z"/>
	</defs>
	<clipPath id="SVGID_72_">
		<use xlink:href="#SVGID_71_"  overflow="visible"/>
	</clipPath>
	<g clip-path="url(#SVGID_72_)">
		<defs>
			<rect id="SVGID_73_" x="-325" y="-1298" width="1024" height="2770"/>
		</defs>
		<clipPath id="SVGID_74_">
			<use xlink:href="#SVGID_73_"  overflow="visible"/>
		</clipPath>
		<rect x="361" y="-964" clip-path="url(#SVGID_74_)" fill="#BDBEC0" width="16" height="16"/>
	</g>
</g>
<g>
	<defs>
		<path id="SVGID_75_" d="M366-948c0-0.5,0.5-1,1-1h4c0.5,0,1,0.5,1,1v4c0,0.5-0.5,1-1,1h-4c-0.5,0-1-0.5-1-1V-948z"/>
	</defs>
	<clipPath id="SVGID_76_">
		<use xlink:href="#SVGID_75_"  overflow="visible"/>
	</clipPath>
	<g clip-path="url(#SVGID_76_)">
		<defs>
			<rect id="SVGID_77_" x="-325" y="-1298" width="1024" height="2770"/>
		</defs>
		<clipPath id="SVGID_78_">
			<use xlink:href="#SVGID_77_"  overflow="visible"/>
		</clipPath>
		<rect x="361" y="-954" clip-path="url(#SVGID_78_)" fill="#BDBEC0" width="16" height="16"/>
	</g>
</g>
<g>
	<defs>
		<path id="SVGID_79_" d="M366-938c0-0.5,0.5-1,1-1h4c0.5,0,1,0.5,1,1v4c0,0.5-0.5,1-1,1h-4c-0.5,0-1-0.5-1-1V-938z"/>
	</defs>
	<clipPath id="SVGID_80_">
		<use xlink:href="#SVGID_79_"  overflow="visible"/>
	</clipPath>
	<g clip-path="url(#SVGID_80_)">
		<defs>
			<rect id="SVGID_81_" x="-325" y="-1298" width="1024" height="2770"/>
		</defs>
		<clipPath id="SVGID_82_">
			<use xlink:href="#SVGID_81_"  overflow="visible"/>
		</clipPath>
		<rect x="361" y="-944" clip-path="url(#SVGID_82_)" fill="#BDBEC0" width="16" height="16"/>
	</g>
</g>
<g>
	<defs>
		<path id="SVGID_83_" d="M439-1008c0-0.5,0.5-1,1-1h61c0.6,0,1,0.5,1,1v4c0,0.5-0.5,1-1,1h-61c-0.6,0-1-0.5-1-1V-1008z"/>
	</defs>
	<clipPath id="SVGID_84_">
		<use xlink:href="#SVGID_83_"  overflow="visible"/>
	</clipPath>
	<g clip-path="url(#SVGID_84_)">
		<defs>
			<rect id="SVGID_85_" x="-325" y="-1298" width="1024" height="2770"/>
		</defs>
		<clipPath id="SVGID_86_">
			<use xlink:href="#SVGID_85_"  overflow="visible"/>
		</clipPath>
		<rect x="434" y="-1014" clip-path="url(#SVGID_86_)" fill="#BDBEC0" width="73" height="16"/>
	</g>
</g>
<g>
	<defs>
		<path id="SVGID_87_" d="M398-1008c0-0.5,0.4-1,1-1h37c0.6,0,1,0.5,1,1v4c0,0.5-0.4,1-1,1h-37c-0.6,0-1-0.5-1-1V-1008z"/>
	</defs>
	<clipPath id="SVGID_88_">
		<use xlink:href="#SVGID_87_"  overflow="visible"/>
	</clipPath>
	<g clip-path="url(#SVGID_88_)">
		<defs>
			<rect id="SVGID_89_" x="-325" y="-1298" width="1024" height="2770"/>
		</defs>
		<clipPath id="SVGID_90_">
			<use xlink:href="#SVGID_89_"  overflow="visible"/>
		</clipPath>
		<rect x="393" y="-1014" clip-path="url(#SVGID_90_)" fill="#BDBEC0" width="49" height="16"/>
	</g>
</g>
<g>
	<defs>
		<path id="SVGID_91_" d="M440-938c0-0.5,0.5-1,1-1h61c0.6,0,1,0.5,1,1v4c0,0.5-0.5,1-1,1h-61c-0.6,0-1-0.5-1-1V-938z"/>
	</defs>
	<clipPath id="SVGID_92_">
		<use xlink:href="#SVGID_91_"  overflow="visible"/>
	</clipPath>
	<g clip-path="url(#SVGID_92_)">
		<defs>
			<rect id="SVGID_93_" x="-325" y="-1298" width="1024" height="2770"/>
		</defs>
		<clipPath id="SVGID_94_">
			<use xlink:href="#SVGID_93_"  overflow="visible"/>
		</clipPath>
		<rect x="435" y="-944" clip-path="url(#SVGID_94_)" fill="#E31E27" width="73" height="16"/>
	</g>
</g>
<g>
	<defs>
		<path id="SVGID_95_" d="M398-938c0-0.5,0.4-1,1-1h37c0.6,0,1,0.5,1,1v4c0,0.5-0.4,1-1,1h-37c-0.6,0-1-0.5-1-1V-938z"/>
	</defs>
	<clipPath id="SVGID_96_">
		<use xlink:href="#SVGID_95_"  overflow="visible"/>
	</clipPath>
	<g clip-path="url(#SVGID_96_)">
		<defs>
			<rect id="SVGID_97_" x="-325" y="-1298" width="1024" height="2770"/>
		</defs>
		<clipPath id="SVGID_98_">
			<use xlink:href="#SVGID_97_"  overflow="visible"/>
		</clipPath>
		<rect x="393" y="-944" clip-path="url(#SVGID_98_)" fill="#BDBEC0" width="49" height="16"/>
	</g>
</g>
<g>
	<defs>
		<path id="SVGID_99_" d="M384-948c0-0.5,0.4-1,1-1h103c0.6,0,1,0.5,1,1v4c0,0.5-0.4,1-1,1H385c-0.6,0-1-0.5-1-1V-948z"/>
	</defs>
	<clipPath id="SVGID_100_">
		<use xlink:href="#SVGID_99_"  overflow="visible"/>
	</clipPath>
	<g clip-path="url(#SVGID_100_)">
		<defs>
			<rect id="SVGID_101_" x="-325" y="-1298" width="1024" height="2770"/>
		</defs>
		<clipPath id="SVGID_102_">
			<use xlink:href="#SVGID_101_"  overflow="visible"/>
		</clipPath>
		<rect x="379" y="-954" clip-path="url(#SVGID_102_)" fill="#BDBEC0" width="115" height="16"/>
	</g>
</g>
<g>
	<defs>
		<path id="SVGID_103_" d="M404-988c0-0.5,0.4-1,1-1h42c0.6,0,1,0.5,1,1v4c0,0.5-0.4,1-1,1h-42c-0.6,0-1-0.5-1-1V-988z"/>
	</defs>
	<clipPath id="SVGID_104_">
		<use xlink:href="#SVGID_103_"  overflow="visible"/>
	</clipPath>
	<g clip-path="url(#SVGID_104_)">
		<defs>
			<rect id="SVGID_105_" x="-325" y="-1298" width="1024" height="2770"/>
		</defs>
		<clipPath id="SVGID_106_">
			<use xlink:href="#SVGID_105_"  overflow="visible"/>
		</clipPath>
		<rect x="399" y="-994" clip-path="url(#SVGID_106_)" fill="#BDBEC0" width="54" height="16"/>
	</g>
</g>
<g>
	<defs>
		<path id="SVGID_107_" d="M451-988c0-0.5,0.4-1,1-1h42c0.6,0,1,0.5,1,1v4c0,0.5-0.4,1-1,1h-42c-0.6,0-1-0.5-1-1V-988z"/>
	</defs>
	<clipPath id="SVGID_108_">
		<use xlink:href="#SVGID_107_"  overflow="visible"/>
	</clipPath>
	<g clip-path="url(#SVGID_108_)">
		<defs>
			<rect id="SVGID_109_" x="-325" y="-1298" width="1024" height="2770"/>
		</defs>
		<clipPath id="SVGID_110_">
			<use xlink:href="#SVGID_109_"  overflow="visible"/>
		</clipPath>
		<rect x="446" y="-994" clip-path="url(#SVGID_110_)" fill="#E31E27" width="54" height="16"/>
	</g>
</g>
<g>
	<defs>
		<path id="SVGID_111_" d="M404-958c0-0.5,0.4-1,1-1h42c0.6,0,1,0.5,1,1v4c0,0.5-0.4,1-1,1h-42c-0.6,0-1-0.5-1-1V-958z"/>
	</defs>
	<clipPath id="SVGID_112_">
		<use xlink:href="#SVGID_111_"  overflow="visible"/>
	</clipPath>
	<g clip-path="url(#SVGID_112_)">
		<defs>
			<rect id="SVGID_113_" x="-325" y="-1298" width="1024" height="2770"/>
		</defs>
		<clipPath id="SVGID_114_">
			<use xlink:href="#SVGID_113_"  overflow="visible"/>
		</clipPath>
		<rect x="399" y="-964" clip-path="url(#SVGID_114_)" fill="#BDBEC0" width="54" height="16"/>
	</g>
</g>
<g>
	<defs>
		<path id="SVGID_115_" d="M451-958c0-0.5,0.4-1,1-1h42c0.6,0,1,0.5,1,1v4c0,0.5-0.4,1-1,1h-42c-0.6,0-1-0.5-1-1V-958z"/>
	</defs>
	<clipPath id="SVGID_116_">
		<use xlink:href="#SVGID_115_"  overflow="visible"/>
	</clipPath>
	<g clip-path="url(#SVGID_116_)">
		<defs>
			<rect id="SVGID_117_" x="-325" y="-1298" width="1024" height="2770"/>
		</defs>
		<clipPath id="SVGID_118_">
			<use xlink:href="#SVGID_117_"  overflow="visible"/>
		</clipPath>
		<rect x="446" y="-964" clip-path="url(#SVGID_118_)" fill="#BDBEC0" width="54" height="16"/>
	</g>
</g>
<g>
	<defs>
		<path id="SVGID_119_" d="M404-998c0-0.5,0.4-1,1-1h42c0.6,0,1,0.5,1,1v4c0,0.5-0.4,1-1,1h-42c-0.6,0-1-0.5-1-1V-998z"/>
	</defs>
	<clipPath id="SVGID_120_">
		<use xlink:href="#SVGID_119_"  overflow="visible"/>
	</clipPath>
	<g clip-path="url(#SVGID_120_)">
		<defs>
			<rect id="SVGID_121_" x="-325" y="-1298" width="1024" height="2770"/>
		</defs>
		<clipPath id="SVGID_122_">
			<use xlink:href="#SVGID_121_"  overflow="visible"/>
		</clipPath>
		<rect x="399" y="-1004" clip-path="url(#SVGID_122_)" fill="#E31E27" width="54" height="16"/>
	</g>
</g>
<g>
	<defs>
		<path id="SVGID_123_" d="M451-998c0-0.5,0.4-1,1-1h42c0.6,0,1,0.5,1,1v4c0,0.5-0.4,1-1,1h-42c-0.6,0-1-0.5-1-1V-998z"/>
	</defs>
	<clipPath id="SVGID_124_">
		<use xlink:href="#SVGID_123_"  overflow="visible"/>
	</clipPath>
	<g clip-path="url(#SVGID_124_)">
		<defs>
			<rect id="SVGID_125_" x="-325" y="-1298" width="1024" height="2770"/>
		</defs>
		<clipPath id="SVGID_126_">
			<use xlink:href="#SVGID_125_"  overflow="visible"/>
		</clipPath>
		<rect x="446" y="-1004" clip-path="url(#SVGID_126_)" fill="#BDBEC0" width="54" height="16"/>
	</g>
</g>
<g>
	<defs>
		<path id="SVGID_127_" d="M424-978c0-0.5,0.4-1,1-1h36.8c0.6,0,1,0.5,1,1v4c0,0.5-0.4,1-1,1H425c-0.6,0-1-0.5-1-1V-978z"/>
	</defs>
	<clipPath id="SVGID_128_">
		<use xlink:href="#SVGID_127_"  overflow="visible"/>
	</clipPath>
	<g clip-path="url(#SVGID_128_)">
		<defs>
			<rect id="SVGID_129_" x="-325" y="-1298" width="1024" height="2770"/>
		</defs>
		<clipPath id="SVGID_130_">
			<use xlink:href="#SVGID_129_"  overflow="visible"/>
		</clipPath>
		<rect x="419" y="-984" clip-path="url(#SVGID_130_)" fill="#BDBEC0" width="48.8" height="16"/>
	</g>
</g>
<g>
	<defs>
		<path id="SVGID_131_" d="M424-968c0-0.5,0.4-1,1-1h36.8c0.6,0,1,0.5,1,1v4c0,0.5-0.4,1-1,1H425c-0.6,0-1-0.5-1-1V-968z"/>
	</defs>
	<clipPath id="SVGID_132_">
		<use xlink:href="#SVGID_131_"  overflow="visible"/>
	</clipPath>
	<g clip-path="url(#SVGID_132_)">
		<defs>
			<rect id="SVGID_133_" x="-325" y="-1298" width="1024" height="2770"/>
		</defs>
		<clipPath id="SVGID_134_">
			<use xlink:href="#SVGID_133_"  overflow="visible"/>
		</clipPath>
		<rect x="419" y="-974" clip-path="url(#SVGID_134_)" fill="#E31E27" width="48.8" height="16"/>
	</g>
</g>
<g>
	<defs>
		<path id="SVGID_135_" d="M465-978c0-0.5,0.4-1,1-1h36.8c0.6,0,1,0.5,1,1v4c0,0.5-0.4,1-1,1H466c-0.6,0-1-0.5-1-1V-978z"/>
	</defs>
	<clipPath id="SVGID_136_">
		<use xlink:href="#SVGID_135_"  overflow="visible"/>
	</clipPath>
	<g clip-path="url(#SVGID_136_)">
		<defs>
			<rect id="SVGID_137_" x="-325" y="-1298" width="1024" height="2770"/>
		</defs>
		<clipPath id="SVGID_138_">
			<use xlink:href="#SVGID_137_"  overflow="visible"/>
		</clipPath>
		<rect x="460" y="-984" clip-path="url(#SVGID_138_)" fill="#BDBEC0" width="48.8" height="16"/>
	</g>
</g>
<g>
	<defs>
		<path id="SVGID_139_" d="M465-968c0-0.5,0.4-1,1-1h36.8c0.6,0,1,0.5,1,1v4c0,0.5-0.4,1-1,1H466c-0.6,0-1-0.5-1-1V-968z"/>
	</defs>
	<clipPath id="SVGID_140_">
		<use xlink:href="#SVGID_139_"  overflow="visible"/>
	</clipPath>
	<g clip-path="url(#SVGID_140_)">
		<defs>
			<rect id="SVGID_141_" x="-325" y="-1298" width="1024" height="2770"/>
		</defs>
		<clipPath id="SVGID_142_">
			<use xlink:href="#SVGID_141_"  overflow="visible"/>
		</clipPath>
		<rect x="460" y="-974" clip-path="url(#SVGID_142_)" fill="#BDBEC0" width="48.8" height="16"/>
	</g>
</g>
<g>
	<g>
		<defs>
			<path id="SVGID_143_" d="M59.6,11.5c0-2,1.7-3.7,3.7-3.7h251.8c2,0,3.7,1.6,3.7,3.7v148.5c0,2-1.7,3.7-3.7,3.7H63.3
				c-2,0-3.7-1.6-3.7-3.7V11.5z"/>
		</defs>
		<clipPath id="SVGID_144_">
			<use xlink:href="#SVGID_143_"  overflow="visible"/>
		</clipPath>
		<g clip-path="url(#SVGID_144_)">
			<defs>
				<rect id="SVGID_145_" x="-544.6" y="-201.6" width="944.6" height="2555.2"/>
			</defs>
			<clipPath id="SVGID_146_">
				<use xlink:href="#SVGID_145_"  overflow="visible"/>
			</clipPath>
			<rect x="55" y="3.2" clip-path="url(#SVGID_146_)" fill="#959494" width="268.4" height="165.1"/>
		</g>
	</g>
	<g>
		<defs>
			<path id="SVGID_147_" d="M68.4,22.6v127.3c0,2.3,1.9,4.2,4.1,4.2h234.3c2.3,0,4.1-1.9,4.1-4.2V22.6c0-2.3-1.9-4.2-4.1-4.2H72.5
				C70.2,18.4,68.4,20.3,68.4,22.6z M69.3,22.6c0-1.8,1.4-3.2,3.2-3.2h234.3c1.8,0,3.2,1.4,3.2,3.2v127.3c0,1.8-1.4,3.2-3.2,3.2
				H72.5c-1.8,0-3.2-1.4-3.2-3.2V22.6z M49.9,0h279.5v176.5H49.9V0z"/>
		</defs>
		<clipPath id="SVGID_148_">
			<use xlink:href="#SVGID_147_"  overflow="visible"/>
		</clipPath>
		<g clip-path="url(#SVGID_148_)">
			<defs>
				<path id="SVGID_149_" d="M68.8,22.6c0-2,1.7-3.7,3.7-3.7h234.3c2,0,3.7,1.7,3.7,3.7v127.3c0,2-1.7,3.7-3.7,3.7H72.5
					c-2,0-3.7-1.7-3.7-3.7V22.6z"/>
			</defs>
			<clipPath id="SVGID_150_">
				<use xlink:href="#SVGID_149_"  overflow="visible"/>
			</clipPath>
			<g clip-path="url(#SVGID_150_)">
				<defs>
					<rect id="SVGID_151_" x="-544.6" y="-201.6" width="944.6" height="2555.2"/>
				</defs>
				<clipPath id="SVGID_152_">
					<use xlink:href="#SVGID_151_"  overflow="visible"/>
				</clipPath>
				<path clip-path="url(#SVGID_152_)" fill="#FDD800" d="M68.8,22.6c0-2,1.7-3.7,3.7-3.7h234.3c2,0,3.7,1.7,3.7,3.7v127.3
					c0,2-1.7,3.7-3.7,3.7H72.5c-2,0-3.7-1.7-3.7-3.7V22.6z"/>
			</g>
		</g>
	</g>
	<g>
		<defs>
			<path id="SVGID_153_" d="M68.8,22.6c0-2,1.7-3.7,3.7-3.7h234.3c2,0,3.7,1.7,3.7,3.7v127.3c0,2-1.7,3.7-3.7,3.7H72.5
				c-2,0-3.7-1.7-3.7-3.7V22.6z"/>
		</defs>
		<clipPath id="SVGID_154_">
			<use xlink:href="#SVGID_153_"  overflow="visible"/>
		</clipPath>
		<g clip-path="url(#SVGID_154_)">
			<defs>
				<rect id="SVGID_155_" x="-544.6" y="-201.6" width="944.6" height="2555.2"/>
			</defs>
			<clipPath id="SVGID_156_">
				<use xlink:href="#SVGID_155_"  overflow="visible"/>
			</clipPath>
			<path clip-path="url(#SVGID_156_)" fill="none" stroke="#979797" stroke-width="2" stroke-miterlimit="10" d="M68.8,22.6
				c0-2,1.7-3.7,3.7-3.7h234.3c2,0,3.7,1.7,3.7,3.7v127.3c0,2-1.7,3.7-3.7,3.7H72.5c-2,0-3.7-1.7-3.7-3.7V22.6z"/>
		</g>
	</g>
	<g>
		<defs>
			<path id="SVGID_157_" d="M87.3,42.9H293v98.7c0,2-1.7,3.7-3.7,3.7H91c-2,0-3.7-1.6-3.7-3.7V42.9z"/>
		</defs>
		<clipPath id="SVGID_158_">
			<use xlink:href="#SVGID_157_"  overflow="visible"/>
		</clipPath>
		<g clip-path="url(#SVGID_158_)">
			<defs>
				<rect id="SVGID_159_" x="-544.6" y="-201.6" width="944.6" height="2555.2"/>
			</defs>
			<clipPath id="SVGID_160_">
				<use xlink:href="#SVGID_159_"  overflow="visible"/>
			</clipPath>
			<rect x="82.7" y="38.3" clip-path="url(#SVGID_160_)" fill="#E2E2E2" width="214.9" height="111.6"/>
		</g>
	</g>
	<g>
		<defs>
			<path id="SVGID_161_" d="M87.3,45.7H293V35.5c0-2-1.7-3.7-3.7-3.7H91c-2,0-3.7,1.7-3.7,3.7V45.7z"/>
		</defs>
		<clipPath id="SVGID_162_">
			<use xlink:href="#SVGID_161_"  overflow="visible"/>
		</clipPath>
		<g clip-path="url(#SVGID_162_)">
			<defs>
				<rect id="SVGID_163_" x="-544.6" y="-201.6" width="944.6" height="2555.2"/>
			</defs>
			<clipPath id="SVGID_164_">
				<use xlink:href="#SVGID_163_"  overflow="visible"/>
			</clipPath>
			<rect x="82.7" y="27.2" clip-path="url(#SVGID_164_)" fill="#222222" width="214.9" height="23.1"/>
		</g>
	</g>
	<g>
		<defs>
			<circle id="SVGID_165_" cx="94.7" cy="39.2" r="2.8"/>
		</defs>
		<clipPath id="SVGID_166_">
			<use xlink:href="#SVGID_165_"  overflow="visible"/>
		</clipPath>
		<g clip-path="url(#SVGID_166_)">
			<defs>
				<rect id="SVGID_167_" x="-544.6" y="-201.6" width="944.6" height="2555.2"/>
			</defs>
			<clipPath id="SVGID_168_">
				<use xlink:href="#SVGID_167_"  overflow="visible"/>
			</clipPath>
			<rect x="87.3" y="31.8" clip-path="url(#SVGID_168_)" fill="#FFFFFF" width="14.8" height="14.8"/>
		</g>
	</g>
	<g>
		<defs>
			<circle id="SVGID_169_" cx="102.5" cy="39.2" r="2.8"/>
		</defs>
		<clipPath id="SVGID_170_">
			<use xlink:href="#SVGID_169_"  overflow="visible"/>
		</clipPath>
		<g clip-path="url(#SVGID_170_)">
			<defs>
				<rect id="SVGID_171_" x="-544.6" y="-201.6" width="944.6" height="2555.2"/>
			</defs>
			<clipPath id="SVGID_172_">
				<use xlink:href="#SVGID_171_"  overflow="visible"/>
			</clipPath>
			<rect x="95.1" y="31.8" clip-path="url(#SVGID_172_)" fill="#FFFFFF" width="14.8" height="14.8"/>
		</g>
	</g>
	<g>
		<defs>
			<circle id="SVGID_173_" cx="110.4" cy="39.2" r="2.8"/>
		</defs>
		<clipPath id="SVGID_174_">
			<use xlink:href="#SVGID_173_"  overflow="visible"/>
		</clipPath>
		<g clip-path="url(#SVGID_174_)">
			<defs>
				<rect id="SVGID_175_" x="-544.6" y="-201.6" width="944.6" height="2555.2"/>
			</defs>
			<clipPath id="SVGID_176_">
				<use xlink:href="#SVGID_175_"  overflow="visible"/>
			</clipPath>
			<rect x="103" y="31.8" clip-path="url(#SVGID_176_)" fill="#FFFFFF" width="14.8" height="14.8"/>
		</g>
	</g>
	<g>
		<defs>
			<path id="SVGID_177_" d="M14.4,163.7c0-1,0.8-1.8,1.8-1.8h339.5c1,0,1.8,0.8,1.8,1.8c0,1-0.8,1.8-1.8,1.8H16.3
				C15.2,165.6,14.4,164.8,14.4,163.7z"/>
		</defs>
		<clipPath id="SVGID_178_">
			<use xlink:href="#SVGID_177_"  overflow="visible"/>
		</clipPath>
		<g clip-path="url(#SVGID_178_)">
			<defs>
				<rect id="SVGID_179_" x="-544.6" y="-201.6" width="944.6" height="2555.2"/>
			</defs>
			<clipPath id="SVGID_180_">
				<use xlink:href="#SVGID_179_"  overflow="visible"/>
			</clipPath>
			<rect x="9.8" y="157.3" clip-path="url(#SVGID_180_)" fill="#D8D9D8" width="352.4" height="12.9"/>
		</g>
	</g>
	<g>
		<defs>
			<polyline id="SVGID_181_" points="17,165.6 60.5,171.1 174.4,171.1 319.2,171.1 357.1,165.6 			"/>
		</defs>
		<clipPath id="SVGID_182_">
			<use xlink:href="#SVGID_181_"  overflow="visible"/>
		</clipPath>
		<g clip-path="url(#SVGID_182_)">
			<defs>
				<rect id="SVGID_183_" x="-544.6" y="-201.6" width="944.6" height="2555.2"/>
			</defs>
			<clipPath id="SVGID_184_">
				<use xlink:href="#SVGID_183_"  overflow="visible"/>
			</clipPath>
			<rect x="12.4" y="161" clip-path="url(#SVGID_184_)" fill="#BCBFC3" width="349.3" height="14.7"/>
		</g>
	</g>
	<g>
		<defs>
			<path id="SVGID_185_" d="M109.4,56.7c0-0.5,0.4-0.9,0.9-0.9h60.9c0.5,0,0.9,0.4,0.9,0.9v3.7c0,0.5-0.4,0.9-0.9,0.9h-60.9
				c-0.5,0-0.9-0.4-0.9-0.9V56.7z"/>
		</defs>
		<clipPath id="SVGID_186_">
			<use xlink:href="#SVGID_185_"  overflow="visible"/>
		</clipPath>
		<g clip-path="url(#SVGID_186_)">
			<defs>
				<rect id="SVGID_187_" x="-544.6" y="-201.6" width="944.6" height="2555.2"/>
			</defs>
			<clipPath id="SVGID_188_">
				<use xlink:href="#SVGID_187_"  overflow="visible"/>
			</clipPath>
			<rect x="104.8" y="51.2" clip-path="url(#SVGID_188_)" fill="#BDBEC0" width="72" height="14.8"/>
		</g>
	</g>
	<g>
		<defs>
			<path id="SVGID_189_" d="M92.8,56.7c0-0.5,0.4-0.9,0.9-0.9h3.7c0.5,0,0.9,0.4,0.9,0.9v3.7c0,0.5-0.4,0.9-0.9,0.9h-3.7
				c-0.5,0-0.9-0.4-0.9-0.9V56.7z"/>
		</defs>
		<clipPath id="SVGID_190_">
			<use xlink:href="#SVGID_189_"  overflow="visible"/>
		</clipPath>
		<g clip-path="url(#SVGID_190_)">
			<defs>
				<rect id="SVGID_191_" x="-544.6" y="-201.6" width="944.6" height="2555.2"/>
			</defs>
			<clipPath id="SVGID_192_">
				<use xlink:href="#SVGID_191_"  overflow="visible"/>
			</clipPath>
			<rect x="88.2" y="51.2" clip-path="url(#SVGID_192_)" fill="#BDBEC0" width="14.8" height="14.8"/>
		</g>
	</g>
	<g>
		<defs>
			<path id="SVGID_193_" d="M92.8,65.9c0-0.5,0.4-0.9,0.9-0.9h3.7c0.5,0,0.9,0.4,0.9,0.9v3.7c0,0.5-0.4,0.9-0.9,0.9h-3.7
				c-0.5,0-0.9-0.4-0.9-0.9V65.9z"/>
		</defs>
		<clipPath id="SVGID_194_">
			<use xlink:href="#SVGID_193_"  overflow="visible"/>
		</clipPath>
		<g clip-path="url(#SVGID_194_)">
			<defs>
				<rect id="SVGID_195_" x="-544.6" y="-201.6" width="944.6" height="2555.2"/>
			</defs>
			<clipPath id="SVGID_196_">
				<use xlink:href="#SVGID_195_"  overflow="visible"/>
			</clipPath>
			<rect x="88.2" y="60.4" clip-path="url(#SVGID_196_)" fill="#BDBEC0" width="14.8" height="14.8"/>
		</g>
	</g>
	<g>
		<defs>
			<path id="SVGID_197_" d="M92.8,75.2c0-0.5,0.4-0.9,0.9-0.9h3.7c0.5,0,0.9,0.4,0.9,0.9v3.7c0,0.5-0.4,0.9-0.9,0.9h-3.7
				c-0.5,0-0.9-0.4-0.9-0.9V75.2z"/>
		</defs>
		<clipPath id="SVGID_198_">
			<use xlink:href="#SVGID_197_"  overflow="visible"/>
		</clipPath>
		<g clip-path="url(#SVGID_198_)">
			<defs>
				<rect id="SVGID_199_" x="-544.6" y="-201.6" width="944.6" height="2555.2"/>
			</defs>
			<clipPath id="SVGID_200_">
				<use xlink:href="#SVGID_199_"  overflow="visible"/>
			</clipPath>
			<rect x="88.2" y="69.6" clip-path="url(#SVGID_200_)" fill="#BDBEC0" width="14.8" height="14.8"/>
		</g>
	</g>
	<g>
		<defs>
			<path id="SVGID_201_" d="M92.8,84.4c0-0.5,0.4-0.9,0.9-0.9h3.7c0.5,0,0.9,0.4,0.9,0.9v3.7c0,0.5-0.4,0.9-0.9,0.9h-3.7
				c-0.5,0-0.9-0.4-0.9-0.9V84.4z"/>
		</defs>
		<clipPath id="SVGID_202_">
			<use xlink:href="#SVGID_201_"  overflow="visible"/>
		</clipPath>
		<g clip-path="url(#SVGID_202_)">
			<defs>
				<rect id="SVGID_203_" x="-544.6" y="-201.6" width="944.6" height="2555.2"/>
			</defs>
			<clipPath id="SVGID_204_">
				<use xlink:href="#SVGID_203_"  overflow="visible"/>
			</clipPath>
			<rect x="88.2" y="78.9" clip-path="url(#SVGID_204_)" fill="#BDBEC0" width="14.8" height="14.8"/>
		</g>
	</g>
	<g>
		<defs>
			<path id="SVGID_205_" d="M92.8,93.6c0-0.5,0.4-0.9,0.9-0.9h3.7c0.5,0,0.9,0.4,0.9,0.9v3.7c0,0.5-0.4,0.9-0.9,0.9h-3.7
				c-0.5,0-0.9-0.4-0.9-0.9V93.6z"/>
		</defs>
		<clipPath id="SVGID_206_">
			<use xlink:href="#SVGID_205_"  overflow="visible"/>
		</clipPath>
		<g clip-path="url(#SVGID_206_)">
			<defs>
				<rect id="SVGID_207_" x="-544.6" y="-201.6" width="944.6" height="2555.2"/>
			</defs>
			<clipPath id="SVGID_208_">
				<use xlink:href="#SVGID_207_"  overflow="visible"/>
			</clipPath>
			<rect x="88.2" y="88.1" clip-path="url(#SVGID_208_)" fill="#BDBEC0" width="14.8" height="14.8"/>
		</g>
	</g>
	<g>
		<defs>
			<path id="SVGID_209_" d="M92.8,102.8c0-0.5,0.4-0.9,0.9-0.9h3.7c0.5,0,0.9,0.4,0.9,0.9v3.7c0,0.5-0.4,0.9-0.9,0.9h-3.7
				c-0.5,0-0.9-0.4-0.9-0.9V102.8z"/>
		</defs>
		<clipPath id="SVGID_210_">
			<use xlink:href="#SVGID_209_"  overflow="visible"/>
		</clipPath>
		<g clip-path="url(#SVGID_210_)">
			<defs>
				<rect id="SVGID_211_" x="-544.6" y="-201.6" width="944.6" height="2555.2"/>
			</defs>
			<clipPath id="SVGID_212_">
				<use xlink:href="#SVGID_211_"  overflow="visible"/>
			</clipPath>
			<rect x="88.2" y="97.3" clip-path="url(#SVGID_212_)" fill="#BDBEC0" width="14.8" height="14.8"/>
		</g>
	</g>
	<g>
		<defs>
			<path id="SVGID_213_" d="M92.8,112.1c0-0.5,0.4-0.9,0.9-0.9h3.7c0.5,0,0.9,0.4,0.9,0.9v3.7c0,0.5-0.4,0.9-0.9,0.9h-3.7
				c-0.5,0-0.9-0.4-0.9-0.9V112.1z"/>
		</defs>
		<clipPath id="SVGID_214_">
			<use xlink:href="#SVGID_213_"  overflow="visible"/>
		</clipPath>
		<g clip-path="url(#SVGID_214_)">
			<defs>
				<rect id="SVGID_215_" x="-544.6" y="-201.6" width="944.6" height="2555.2"/>
			</defs>
			<clipPath id="SVGID_216_">
				<use xlink:href="#SVGID_215_"  overflow="visible"/>
			</clipPath>
			<rect x="88.2" y="106.5" clip-path="url(#SVGID_216_)" fill="#BDBEC0" width="14.8" height="14.8"/>
		</g>
	</g>
	<g>
		<defs>
			<path id="SVGID_217_" d="M92.8,121.3c0-0.5,0.4-0.9,0.9-0.9h3.7c0.5,0,0.9,0.4,0.9,0.9v3.7c0,0.5-0.4,0.9-0.9,0.9h-3.7
				c-0.5,0-0.9-0.4-0.9-0.9V121.3z"/>
		</defs>
		<clipPath id="SVGID_218_">
			<use xlink:href="#SVGID_217_"  overflow="visible"/>
		</clipPath>
		<g clip-path="url(#SVGID_218_)">
			<defs>
				<rect id="SVGID_219_" x="-544.6" y="-201.6" width="944.6" height="2555.2"/>
			</defs>
			<clipPath id="SVGID_220_">
				<use xlink:href="#SVGID_219_"  overflow="visible"/>
			</clipPath>
			<rect x="88.2" y="115.8" clip-path="url(#SVGID_220_)" fill="#BDBEC0" width="14.8" height="14.8"/>
		</g>
	</g>
	<g>
		<defs>
			<path id="SVGID_221_" d="M92.8,130.5c0-0.5,0.4-0.9,0.9-0.9h3.7c0.5,0,0.9,0.4,0.9,0.9v3.7c0,0.5-0.4,0.9-0.9,0.9h-3.7
				c-0.5,0-0.9-0.4-0.9-0.9V130.5z"/>
		</defs>
		<clipPath id="SVGID_222_">
			<use xlink:href="#SVGID_221_"  overflow="visible"/>
		</clipPath>
		<g clip-path="url(#SVGID_222_)">
			<defs>
				<rect id="SVGID_223_" x="-544.6" y="-201.6" width="944.6" height="2555.2"/>
			</defs>
			<clipPath id="SVGID_224_">
				<use xlink:href="#SVGID_223_"  overflow="visible"/>
			</clipPath>
			<rect x="88.2" y="125" clip-path="url(#SVGID_224_)" fill="#BDBEC0" width="14.8" height="14.8"/>
		</g>
	</g>
	<g>
		<defs>
			<path id="SVGID_225_" d="M160.2,65.9c0-0.5,0.4-0.9,0.9-0.9h56.3c0.5,0,0.9,0.4,0.9,0.9v3.7c0,0.5-0.4,0.9-0.9,0.9h-56.3
				c-0.5,0-0.9-0.4-0.9-0.9V65.9z"/>
		</defs>
		<clipPath id="SVGID_226_">
			<use xlink:href="#SVGID_225_"  overflow="visible"/>
		</clipPath>
		<g clip-path="url(#SVGID_226_)">
			<defs>
				<rect id="SVGID_227_" x="-544.6" y="-201.6" width="944.6" height="2555.2"/>
			</defs>
			<clipPath id="SVGID_228_">
				<use xlink:href="#SVGID_227_"  overflow="visible"/>
			</clipPath>
			<rect x="155.6" y="60.4" clip-path="url(#SVGID_228_)" fill="#BDBEC0" width="67.3" height="14.8"/>
		</g>
	</g>
	<g>
		<defs>
			<path id="SVGID_229_" d="M122.4,65.9c0-0.5,0.4-0.9,0.9-0.9h34.1c0.5,0,0.9,0.4,0.9,0.9v3.7c0,0.5-0.4,0.9-0.9,0.9h-34.1
				c-0.5,0-0.9-0.4-0.9-0.9V65.9z"/>
		</defs>
		<clipPath id="SVGID_230_">
			<use xlink:href="#SVGID_229_"  overflow="visible"/>
		</clipPath>
		<g clip-path="url(#SVGID_230_)">
			<defs>
				<rect id="SVGID_231_" x="-544.6" y="-201.6" width="944.6" height="2555.2"/>
			</defs>
			<clipPath id="SVGID_232_">
				<use xlink:href="#SVGID_231_"  overflow="visible"/>
			</clipPath>
			<rect x="117.7" y="60.4" clip-path="url(#SVGID_232_)" fill="#BDBEC0" width="45.2" height="14.8"/>
		</g>
	</g>
	<g>
		<defs>
			<path id="SVGID_233_" d="M161.1,130.5c0-0.5,0.4-0.9,0.9-0.9h56.3c0.5,0,0.9,0.4,0.9,0.9v3.7c0,0.5-0.4,0.9-0.9,0.9H162
				c-0.5,0-0.9-0.4-0.9-0.9V130.5z"/>
		</defs>
		<clipPath id="SVGID_234_">
			<use xlink:href="#SVGID_233_"  overflow="visible"/>
		</clipPath>
		<g clip-path="url(#SVGID_234_)">
			<defs>
				<rect id="SVGID_235_" x="-544.6" y="-201.6" width="944.6" height="2555.2"/>
			</defs>
			<clipPath id="SVGID_236_">
				<use xlink:href="#SVGID_235_"  overflow="visible"/>
			</clipPath>
			<rect x="156.5" y="125" clip-path="url(#SVGID_236_)" fill="#E31E27" width="67.3" height="14.8"/>
		</g>
	</g>
	<g>
		<defs>
			<path id="SVGID_237_" d="M122.4,130.5c0-0.5,0.4-0.9,0.9-0.9h34.1c0.5,0,0.9,0.4,0.9,0.9v3.7c0,0.5-0.4,0.9-0.9,0.9h-34.1
				c-0.5,0-0.9-0.4-0.9-0.9V130.5z"/>
		</defs>
		<clipPath id="SVGID_238_">
			<use xlink:href="#SVGID_237_"  overflow="visible"/>
		</clipPath>
		<g clip-path="url(#SVGID_238_)">
			<defs>
				<rect id="SVGID_239_" x="-544.6" y="-201.6" width="944.6" height="2555.2"/>
			</defs>
			<clipPath id="SVGID_240_">
				<use xlink:href="#SVGID_239_"  overflow="visible"/>
			</clipPath>
			<rect x="117.7" y="125" clip-path="url(#SVGID_240_)" fill="#BDBEC0" width="45.2" height="14.8"/>
		</g>
	</g>
	<g>
		<defs>
			<path id="SVGID_241_" d="M109.4,121.3c0-0.5,0.4-0.9,0.9-0.9h95c0.5,0,0.9,0.4,0.9,0.9v3.7c0,0.5-0.4,0.9-0.9,0.9h-95
				c-0.5,0-0.9-0.4-0.9-0.9V121.3z"/>
		</defs>
		<clipPath id="SVGID_242_">
			<use xlink:href="#SVGID_241_"  overflow="visible"/>
		</clipPath>
		<g clip-path="url(#SVGID_242_)">
			<defs>
				<rect id="SVGID_243_" x="-544.6" y="-201.6" width="944.6" height="2555.2"/>
			</defs>
			<clipPath id="SVGID_244_">
				<use xlink:href="#SVGID_243_"  overflow="visible"/>
			</clipPath>
			<rect x="104.8" y="115.8" clip-path="url(#SVGID_244_)" fill="#BDBEC0" width="106.1" height="14.8"/>
		</g>
	</g>
	<g>
		<defs>
			<path id="SVGID_245_" d="M127.9,84.4c0-0.5,0.4-0.9,0.9-0.9h38.7c0.5,0,0.9,0.4,0.9,0.9v3.7c0,0.5-0.4,0.9-0.9,0.9h-38.7
				c-0.5,0-0.9-0.4-0.9-0.9V84.4z"/>
		</defs>
		<clipPath id="SVGID_246_">
			<use xlink:href="#SVGID_245_"  overflow="visible"/>
		</clipPath>
		<g clip-path="url(#SVGID_246_)">
			<defs>
				<rect id="SVGID_247_" x="-544.6" y="-201.6" width="944.6" height="2555.2"/>
			</defs>
			<clipPath id="SVGID_248_">
				<use xlink:href="#SVGID_247_"  overflow="visible"/>
			</clipPath>
			<rect x="123.3" y="78.9" clip-path="url(#SVGID_248_)" fill="#BDBEC0" width="49.8" height="14.8"/>
		</g>
	</g>
	<g>
		<defs>
			<path id="SVGID_249_" d="M171.2,84.4c0-0.5,0.4-0.9,0.9-0.9h38.7c0.5,0,0.9,0.4,0.9,0.9v3.7c0,0.5-0.4,0.9-0.9,0.9h-38.7
				c-0.5,0-0.9-0.4-0.9-0.9V84.4z"/>
		</defs>
		<clipPath id="SVGID_250_">
			<use xlink:href="#SVGID_249_"  overflow="visible"/>
		</clipPath>
		<g clip-path="url(#SVGID_250_)">
			<defs>
				<rect id="SVGID_251_" x="-544.6" y="-201.6" width="944.6" height="2555.2"/>
			</defs>
			<clipPath id="SVGID_252_">
				<use xlink:href="#SVGID_251_"  overflow="visible"/>
			</clipPath>
			<rect x="166.6" y="78.9" clip-path="url(#SVGID_252_)" fill="#E31E27" width="49.8" height="14.8"/>
		</g>
	</g>
	<g>
		<defs>
			<path id="SVGID_253_" d="M127.9,112.1c0-0.5,0.4-0.9,0.9-0.9h38.7c0.5,0,0.9,0.4,0.9,0.9v3.7c0,0.5-0.4,0.9-0.9,0.9h-38.7
				c-0.5,0-0.9-0.4-0.9-0.9V112.1z"/>
		</defs>
		<clipPath id="SVGID_254_">
			<use xlink:href="#SVGID_253_"  overflow="visible"/>
		</clipPath>
		<g clip-path="url(#SVGID_254_)">
			<defs>
				<rect id="SVGID_255_" x="-544.6" y="-201.6" width="944.6" height="2555.2"/>
			</defs>
			<clipPath id="SVGID_256_">
				<use xlink:href="#SVGID_255_"  overflow="visible"/>
			</clipPath>
			<rect x="123.3" y="106.5" clip-path="url(#SVGID_256_)" fill="#BDBEC0" width="49.8" height="14.8"/>
		</g>
	</g>
	<g>
		<defs>
			<path id="SVGID_257_" d="M171.2,112.1c0-0.5,0.4-0.9,0.9-0.9h38.7c0.5,0,0.9,0.4,0.9,0.9v3.7c0,0.5-0.4,0.9-0.9,0.9h-38.7
				c-0.5,0-0.9-0.4-0.9-0.9V112.1z"/>
		</defs>
		<clipPath id="SVGID_258_">
			<use xlink:href="#SVGID_257_"  overflow="visible"/>
		</clipPath>
		<g clip-path="url(#SVGID_258_)">
			<defs>
				<rect id="SVGID_259_" x="-544.6" y="-201.6" width="944.6" height="2555.2"/>
			</defs>
			<clipPath id="SVGID_260_">
				<use xlink:href="#SVGID_259_"  overflow="visible"/>
			</clipPath>
			<rect x="166.6" y="106.5" clip-path="url(#SVGID_260_)" fill="#BDBEC0" width="49.8" height="14.8"/>
		</g>
	</g>
	<g>
		<defs>
			<path id="SVGID_261_" d="M127.9,75.2c0-0.5,0.4-0.9,0.9-0.9h38.7c0.5,0,0.9,0.4,0.9,0.9v3.7c0,0.5-0.4,0.9-0.9,0.9h-38.7
				c-0.5,0-0.9-0.4-0.9-0.9V75.2z"/>
		</defs>
		<clipPath id="SVGID_262_">
			<use xlink:href="#SVGID_261_"  overflow="visible"/>
		</clipPath>
		<g clip-path="url(#SVGID_262_)">
			<defs>
				<rect id="SVGID_263_" x="-544.6" y="-201.6" width="944.6" height="2555.2"/>
			</defs>
			<clipPath id="SVGID_264_">
				<use xlink:href="#SVGID_263_"  overflow="visible"/>
			</clipPath>
			<rect x="123.3" y="69.6" clip-path="url(#SVGID_264_)" fill="#E31E27" width="49.8" height="14.8"/>
		</g>
	</g>
	<g>
		<defs>
			<path id="SVGID_265_" d="M171.2,75.2c0-0.5,0.4-0.9,0.9-0.9h38.7c0.5,0,0.9,0.4,0.9,0.9v3.7c0,0.5-0.4,0.9-0.9,0.9h-38.7
				c-0.5,0-0.9-0.4-0.9-0.9V75.2z"/>
		</defs>
		<clipPath id="SVGID_266_">
			<use xlink:href="#SVGID_265_"  overflow="visible"/>
		</clipPath>
		<g clip-path="url(#SVGID_266_)">
			<defs>
				<rect id="SVGID_267_" x="-544.6" y="-201.6" width="944.6" height="2555.2"/>
			</defs>
			<clipPath id="SVGID_268_">
				<use xlink:href="#SVGID_267_"  overflow="visible"/>
			</clipPath>
			<rect x="166.6" y="69.6" clip-path="url(#SVGID_268_)" fill="#BDBEC0" width="49.8" height="14.8"/>
		</g>
	</g>
	<g>
		<defs>
			<path id="SVGID_269_" d="M146.3,93.6c0-0.5,0.4-0.9,0.9-0.9h33.9c0.5,0,0.9,0.4,0.9,0.9v3.7c0,0.5-0.4,0.9-0.9,0.9h-33.9
				c-0.5,0-0.9-0.4-0.9-0.9V93.6z"/>
		</defs>
		<clipPath id="SVGID_270_">
			<use xlink:href="#SVGID_269_"  overflow="visible"/>
		</clipPath>
		<g clip-path="url(#SVGID_270_)">
			<defs>
				<rect id="SVGID_271_" x="-544.6" y="-201.6" width="944.6" height="2555.2"/>
			</defs>
			<clipPath id="SVGID_272_">
				<use xlink:href="#SVGID_271_"  overflow="visible"/>
			</clipPath>
			<rect x="141.7" y="88.1" clip-path="url(#SVGID_272_)" fill="#BDBEC0" width="45" height="14.8"/>
		</g>
	</g>
	<g>
		<defs>
			<path id="SVGID_273_" d="M146.3,102.8c0-0.5,0.4-0.9,0.9-0.9h33.9c0.5,0,0.9,0.4,0.9,0.9v3.7c0,0.5-0.4,0.9-0.9,0.9h-33.9
				c-0.5,0-0.9-0.4-0.9-0.9V102.8z"/>
		</defs>
		<clipPath id="SVGID_274_">
			<use xlink:href="#SVGID_273_"  overflow="visible"/>
		</clipPath>
		<g clip-path="url(#SVGID_274_)">
			<defs>
				<rect id="SVGID_275_" x="-544.6" y="-201.6" width="944.6" height="2555.2"/>
			</defs>
			<clipPath id="SVGID_276_">
				<use xlink:href="#SVGID_275_"  overflow="visible"/>
			</clipPath>
			<rect x="141.7" y="97.3" clip-path="url(#SVGID_276_)" fill="#E31E27" width="45" height="14.8"/>
		</g>
	</g>
	<g>
		<defs>
			<path id="SVGID_277_" d="M184.2,93.6c0-0.5,0.4-0.9,0.9-0.9H219c0.5,0,0.9,0.4,0.9,0.9v3.7c0,0.5-0.4,0.9-0.9,0.9h-33.9
				c-0.5,0-0.9-0.4-0.9-0.9V93.6z"/>
		</defs>
		<clipPath id="SVGID_278_">
			<use xlink:href="#SVGID_277_"  overflow="visible"/>
		</clipPath>
		<g clip-path="url(#SVGID_278_)">
			<defs>
				<rect id="SVGID_279_" x="-544.6" y="-201.6" width="944.6" height="2555.2"/>
			</defs>
			<clipPath id="SVGID_280_">
				<use xlink:href="#SVGID_279_"  overflow="visible"/>
			</clipPath>
			<rect x="179.5" y="88.1" clip-path="url(#SVGID_280_)" fill="#BDBEC0" width="45" height="14.8"/>
		</g>
	</g>
	<g>
		<defs>
			<path id="SVGID_281_" d="M184.2,102.8c0-0.5,0.4-0.9,0.9-0.9H219c0.5,0,0.9,0.4,0.9,0.9v3.7c0,0.5-0.4,0.9-0.9,0.9h-33.9
				c-0.5,0-0.9-0.4-0.9-0.9V102.8z"/>
		</defs>
		<clipPath id="SVGID_282_">
			<use xlink:href="#SVGID_281_"  overflow="visible"/>
		</clipPath>
		<g clip-path="url(#SVGID_282_)">
			<defs>
				<rect id="SVGID_283_" x="-544.6" y="-201.6" width="944.6" height="2555.2"/>
			</defs>
			<clipPath id="SVGID_284_">
				<use xlink:href="#SVGID_283_"  overflow="visible"/>
			</clipPath>
			<rect x="179.5" y="97.3" clip-path="url(#SVGID_284_)" fill="#BDBEC0" width="45" height="14.8"/>
		</g>
	</g>
</g>
</svg>
