<?xml version="1.0" encoding="utf-8"?>
<!-- Generator: Adobe Illustrator 18.0.0, SVG Export Plug-In . SVG Version: 6.00 Build 0)  -->
<!DOCTYPE svg PUBLIC "-//W3C//DTD SVG 1.1//EN" "http://www.w3.org/Graphics/SVG/1.1/DTD/svg11.dtd">
<svg version="1.1" id="Layer_1" xmlns="http://www.w3.org/2000/svg" xmlns:xlink="http://www.w3.org/1999/xlink" x="0px" y="0px"
	 viewBox="0 0 50 50" enable-background="new 0 0 50 50" xml:space="preserve">
<g>
	<path fill="none" d="M33.9,17.8c-0.7,0-1.3,0.3-1.8,0.8L22.6,28l-4.7-4.7c-0.5-0.5-1.1-0.8-1.8-0.8c-0.7,0-1.3,0.3-1.8,0.8
		c-1,1-1,2.7,0,3.7l6.5,6.5c0.5,0.5,1.1,0.8,1.8,0.8c0.5,0,1-0.1,1.4-0.4c0.1-0.1,0.3-0.2,0.4-0.3l11.3-11.3
		c0.5-0.5,0.8-1.1,0.8-1.8c0-0.7-0.3-1.3-0.8-1.8C35.2,18,34.6,17.8,33.9,17.8z"/>
	<path fill="#E51B24" d="M25.1,8L25.1,8C25,8,25,8,25.1,8c-5.7,0-11.1,2.7-14.5,7.3C8.2,18.4,7,22.1,7,26c0,3.4,1,6.8,2.8,9.7
		c1.8,2.8,4.3,5.1,7.3,6.5c2.5,1.2,5.1,1.8,7.9,1.8c0,0,0,0,0.1,0l0,0C35,44,43,35.9,43,26C43,16.1,35,8,25.1,8z M35.7,22.2
		L24.4,33.5c-0.1,0.1-0.3,0.2-0.4,0.3c-0.4,0.3-0.9,0.4-1.4,0.4c-0.7,0-1.3-0.3-1.8-0.8L14.3,27c-1-1-1-2.7,0-3.7
		c0.5-0.5,1.1-0.8,1.8-0.8c0.7,0,1.3,0.3,1.8,0.8l4.7,4.7l9.5-9.5c0.5-0.5,1.1-0.8,1.8-0.8c0.7,0,1.3,0.3,1.8,0.8
		c0.5,0.5,0.8,1.1,0.8,1.8C36.5,21,36.2,21.7,35.7,22.2z"/>
</g>
</svg>
