<?xml version="1.0" encoding="utf-8"?>
<!-- Generator: Adobe Illustrator 18.0.0, SVG Export Plug-In . SVG Version: 6.00 Build 0)  -->
<!DOCTYPE svg PUBLIC "-//W3C//DTD SVG 1.1//EN" "http://www.w3.org/Graphics/SVG/1.1/DTD/svg11.dtd">
<svg version="1.1"
	 id="Layer_1" xmlns:dc="http://purl.org/dc/elements/1.1/" xmlns:cc="http://creativecommons.org/ns#" xmlns:rdf="http://www.w3.org/1999/02/22-rdf-syntax-ns#" xmlns:inkscape="http://www.inkscape.org/namespaces/inkscape" xmlns:svg="http://www.w3.org/2000/svg" xmlns:sodipodi="http://sodipodi.sourceforge.net/DTD/sodipodi-0.dtd"
	 xmlns="http://www.w3.org/2000/svg" xmlns:xlink="http://www.w3.org/1999/xlink" x="0px" y="0px" viewBox="0 0 50 50"
	 enable-background="new 0 0 50 50" xml:space="preserve">
<g transform="translate(0,-952.36218)">
	<path d="M25,966.8c-6.4,0-11.6,5.2-11.6,11.6S18.6,990,25,990s11.6-5.2,11.6-11.6S31.4,966.8,25,966.8z M25,967.6
		c6,0,10.8,4.8,10.8,10.8c0,6-4.8,10.8-10.8,10.8s-10.8-4.8-10.8-10.8C14.2,972.4,19,967.6,25,967.6z M20.2,972.4c-1.1,0-2,0.9-2,2
		s0.9,2,2,2s2-0.9,2-2S21.3,972.4,20.2,972.4z M29.8,972.4c-1.1,0-2,0.9-2,2s0.9,2,2,2c1.1,0,2-0.9,2-2S30.9,972.4,29.8,972.4z
		 M17.8,980c-0.4,0-0.4,0.3-0.4,0.5c1,3.2,4,5.5,7.6,5.5s6.6-2.3,7.6-5.5c0.1-0.2-0.1-0.5-0.4-0.5H17.8z M18.5,980.8h13.1
		c-1,2.5-3.5,4.4-6.6,4.4S19.5,983.3,18.5,980.8z"/>
</g>
</svg>
